<?xml version="1.0" encoding="UTF-8" standalone="no"?>
<!DOCTYPE svg PUBLIC "-//W3C//DTD SVG 1.1//EN"
 "http://www.w3.org/Graphics/SVG/1.1/DTD/svg11.dtd">
<!-- Generated by graphviz version 2.40.1 (20161225.0304)
 -->
<!-- Title: a_framework Pages: 1 -->
<svg width="853pt" height="658pt"
 viewBox="0.00 0.00 853.17 658.00" xmlns="http://www.w3.org/2000/svg" xmlns:xlink="http://www.w3.org/1999/xlink">
<g id="graph0" class="graph" transform="scale(1 1) rotate(0) translate(4 654)">
<title>a_framework</title>
<polygon fill="#ffffff" stroke="transparent" points="-4,4 -4,-654 849.1654,-654 849.1654,4 -4,4"/>
<text text-anchor="middle" x="422.5827" y="-628" font-family="Helvetica,Arial,sans-serif" font-size="20.00" fill="#000000">build a web&#45;ish framework </text>
<g id="clust1" class="cluster">
<title>cluster_code_structure</title>
<text text-anchor="middle" x="104" y="-564" font-family="Helvetica,Arial,sans-serif" font-size="20.00" fill="#000000">code structure</text>
</g>
<g id="clust2" class="cluster">
<title>cluster_production</title>
<polygon fill="none" stroke="#000000" points="445.6381,-245 445.6381,-386 837.1654,-386 837.1654,-245 445.6381,-245"/>
<text text-anchor="middle" x="641.4018" y="-364" font-family="Helvetica,Arial,sans-serif" font-size="20.00" fill="#000000">production</text>
</g>
<!-- hosting -->
<g id="node1" class="node">
<title>hosting</title>
<polygon fill="#f2f2f2" stroke="#000000" points="808.1203,-278.82 829.1682,-294.6145 821.9575,-311.8013 788.7775,-324.9239 740.1626,-329.8158 691.5477,-324.9239 658.3677,-311.8013 651.157,-294.6145 672.2049,-278.82 714.829,-269.4325 765.4962,-269.4325 808.1203,-278.82"/>
<text text-anchor="middle" x="740.1626" y="-303.2" font-family="Helvetica,Arial,sans-serif" font-size="14.00" fill="#000000">MultiCloud</text>
<text text-anchor="middle" x="740.1626" y="-286.4" font-family="Helvetica,Arial,sans-serif" font-size="14.00" fill="#000000">function | service</text>
</g>
<!-- client -->
<g id="node2" class="node">
<title>client</title>
<polygon fill="#f2f2f2" stroke="transparent" points="166,-234 41,-234 41,-16 166,-16 166,-234"/>
<text text-anchor="start" x="77.9383" y="-217.4" font-family="Helvetica,Arial,sans-serif" font-weight="bold" font-size="14.00" fill="#000000">client/…</text>
<text text-anchor="start" x="46.5" y="-193.4" font-family="Helvetica,Arial,sans-serif" font-style="italic" font-size="14.00" fill="#000000">routes:</text>
<text text-anchor="start" x="46.5" y="-168.4" font-family="Helvetica,Arial,sans-serif" font-size="14.00" fill="#000000"> &#160;&#160;&#160;user_routes</text>
<text text-anchor="start" x="46.0323" y="-144.4" font-family="Helvetica,Arial,sans-serif" font-size="14.00" fill="#000000"> &#160;&#160;&#160;used_routes &#160;&#160;&#160;&#160;&#160;</text>
<text text-anchor="start" x="46.5" y="-121.4" font-family="Helvetica,Arial,sans-serif" font-style="italic" font-size="14.00" fill="#000000">components:</text>
<text text-anchor="start" x="46.5" y="-96.4" font-family="Helvetica,Arial,sans-serif" font-size="14.00" fill="#000000"> &#160;&#160;&#160;Loading &#160;</text>
<text text-anchor="start" x="46.5" y="-72.4" font-family="Helvetica,Arial,sans-serif" font-size="14.00" fill="#000000"> &#160;&#160;&#160;Nav &#160;</text>
<text text-anchor="start" x="46.5" y="-48.4" font-family="Helvetica,Arial,sans-serif" font-size="14.00" fill="#000000"> &#160;&#160;&#160;… &#160;</text>
<text text-anchor="start" x="46.5" y="-25.4" font-family="Helvetica,Arial,sans-serif" font-style="italic" font-size="14.00" fill="#000000">assets</text>
<polygon fill="none" stroke="#000000" points="41,-16 41,-234 166,-234 166,-16 41,-16"/>
</g>
<!-- client&#45;&gt;client -->
<g id="edge9" class="edge">
<title>client:user_routes&#45;&gt;client:used_routes</title>
<path fill="none" stroke="#000000" stroke-dasharray="5,2" d="M42.407,-178.4364C19.1791,-177.2307 0,-171.9922 0,-161 0,-150.6519 16.9974,-145.403 38.3687,-143.8175"/>
<polygon fill="#000000" stroke="#000000" points="38.5027,-145.2119 42.407,-143.5636 38.327,-142.4174 38.5027,-145.2119"/>
</g>
<!-- client_entry -->
<g id="node6" class="node">
<title>client_entry</title>
<polygon fill="#f2f2f2" stroke="#000000" points="207.1087,-170 207.1087,-206 294.6767,-206 294.6767,-170 207.1087,-170"/>
<text text-anchor="middle" x="250.8927" y="-183.9" font-family="Helvetica,Arial,sans-serif" font-size="14.00" fill="#000000">client_entry</text>
</g>
<!-- client&#45;&gt;client_entry -->
<g id="edge1" class="edge">
<title>client&#45;&gt;client_entry</title>
<path fill="none" stroke="#000000" d="M166.0078,-151.7177C180.2876,-157.8213 195.1413,-164.1702 208.3564,-169.8187"/>
</g>
<!-- server_entry -->
<g id="node7" class="node">
<title>server_entry</title>
<polygon fill="#f2f2f2" stroke="#000000" points="204,-275 204,-311 297.7854,-311 297.7854,-275 204,-275"/>
<text text-anchor="middle" x="250.8927" y="-288.9" font-family="Helvetica,Arial,sans-serif" font-size="14.00" fill="#000000">server_entry</text>
</g>
<!-- client&#45;&gt;server_entry -->
<g id="edge11" class="edge">
<title>client:routes&#45;&gt;server_entry</title>
<path fill="none" stroke="#000000" stroke-dasharray="5,2" d="M165.5,-197C185.3272,-197 218.7962,-243.294 237.3992,-271.5864"/>
<polygon fill="#000000" stroke="#000000" points="236.2324,-272.3602 239.5923,-274.9431 238.5765,-270.8287 236.2324,-272.3602"/>
</g>
<!-- server -->
<g id="node3" class="node">
<title>server</title>
<polygon fill="#f2f2f2" stroke="transparent" points="165.5,-546 41.5,-546 41.5,-352 165.5,-352 165.5,-546"/>
<text text-anchor="start" x="74.3296" y="-529.4" font-family="Helvetica,Arial,sans-serif" font-weight="bold" font-size="14.00" fill="#000000">server/…</text>
<text text-anchor="start" x="46.5" y="-505.4" font-family="Helvetica,Arial,sans-serif" font-style="italic" font-size="14.00" fill="#000000">stats</text>
<text text-anchor="start" x="46.5" y="-481.4" font-family="Helvetica,Arial,sans-serif" font-style="italic" font-size="14.00" fill="#000000">handlers:</text>
<text text-anchor="start" x="46.5" y="-456.4" font-family="Helvetica,Arial,sans-serif" font-size="14.00" fill="#000000"> &#160;&#160;&#160;api handler</text>
<text text-anchor="start" x="46.5" y="-432.4" font-family="Helvetica,Arial,sans-serif" font-size="14.00" fill="#000000"> &#160;&#160;&#160;doc handler</text>
<text text-anchor="start" x="46.317" y="-408.4" font-family="Helvetica,Arial,sans-serif" font-size="14.00" fill="#000000"> &#160;&#160;&#160;static handler &#160;&#160;&#160;</text>
<text text-anchor="start" x="46.5" y="-385.4" font-family="Helvetica,Arial,sans-serif" font-style="italic" font-size="14.00" fill="#000000">bundler &#160;</text>
<text text-anchor="start" x="46.5" y="-361.4" font-family="Helvetica,Arial,sans-serif" font-style="italic" font-size="14.00" fill="#000000">server &#160;</text>
<polygon fill="none" stroke="#000000" points="41.5,-352 41.5,-546 165.5,-546 165.5,-352 41.5,-352"/>
</g>
<!-- server&#45;&gt;server -->
<g id="edge10" class="edge">
<title>server:stats&#45;&gt;server:doc_handler</title>
<path fill="none" stroke="#000000" stroke-dasharray="5,2" d="M42.4256,-511.8839C19.4544,-507.8636 .5,-496.6426 .5,-473 .5,-450.7427 17.2983,-439.494 38.432,-434.898"/>
<polygon fill="#000000" stroke="#000000" points="38.7691,-436.2587 42.4256,-434.1161 38.2311,-433.5108 38.7691,-436.2587"/>
</g>
<!-- server&#45;&gt;server_entry -->
<g id="edge2" class="edge">
<title>server&#45;&gt;server_entry</title>
<path fill="none" stroke="#000000" d="M165.5806,-383.2941C190.2844,-357.1476 216.7745,-329.1106 233.5685,-311.3359"/>
</g>
<!-- props -->
<g id="node4" class="node">
<title>props</title>
<polygon fill="#f2f2f2" stroke="#000000" points="41,-253 41,-333 166,-333 166,-253 41,-253"/>
<text text-anchor="start" x="86.4958" y="-313.4" font-family="Helvetica,Arial,sans-serif" font-weight="bold" font-size="14.00" fill="#000000">props</text>
<text text-anchor="start" x="53.4306" y="-288.4" font-family="Helvetica,Arial,sans-serif" font-size="14.00" fill="#000000">url, headers &#160;&#160;&#160;&#160;&#160;&#160;</text>
<text text-anchor="start" x="53.5" y="-264.4" font-family="Helvetica,Arial,sans-serif" font-size="14.00" fill="#000000">route, …</text>
</g>
<!-- props&#45;&gt;client_entry -->
<g id="edge12" class="edge">
<title>props:head&#45;&gt;client_entry</title>
<path fill="none" stroke="#000000" stroke-dasharray="5,2" d="M166.4563,-252.6799C187.9859,-237.5644 211.6104,-219.3171 228.3815,-206.063"/>
</g>
<!-- props&#45;&gt;server_entry -->
<g id="edge13" class="edge">
<title>props:head&#45;&gt;server_entry</title>
<path fill="none" stroke="#000000" stroke-dasharray="5,2" d="M166.0078,-293C178.7184,-293 191.8837,-293 203.9434,-293"/>
</g>
<!-- dev_environment -->
<g id="node5" class="node">
<title>dev_environment</title>
<polygon fill="#f2f2f2" stroke="#000000" points="392.1402,-96 392.1402,-224 573.1402,-224 573.1402,-96 392.1402,-96"/>
<text text-anchor="start" x="431.4116" y="-203.4" font-family="Helvetica,Arial,sans-serif" font-size="14.00" fill="#000000">DevEnvironment</text>
<text text-anchor="start" x="404.6402" y="-179.4" font-family="Helvetica,Arial,sans-serif" font-size="14.00" fill="#000000">Prebuilt Routes</text>
<text text-anchor="start" x="404.1809" y="-155.4" font-family="Helvetica,Arial,sans-serif" font-size="14.00" fill="#000000">Hot Module Replacement</text>
<text text-anchor="start" x="404.6402" y="-131.4" font-family="Helvetica,Arial,sans-serif" font-size="14.00" fill="#000000">Stats Writer</text>
<text text-anchor="start" x="404.6402" y="-107.4" font-family="Helvetica,Arial,sans-serif" font-size="14.00" fill="#000000">…</text>
</g>
<!-- client_entry&#45;&gt;dev_environment -->
<g id="edge14" class="edge">
<title>client_entry&#45;&gt;dev_environment</title>
<path fill="none" stroke="#000000" stroke-dasharray="5,2" d="M294.9053,-173.6363C301.8315,-171.8059 308.9584,-170.1674 315.7854,-169 338.897,-165.048 364.0469,-162.6943 387.6444,-161.3237"/>
<polygon fill="#000000" stroke="#000000" points="387.808,-162.7168 391.7235,-161.0956 387.6516,-159.9212 387.808,-162.7168"/>
</g>
<!-- artifact -->
<g id="node8" class="node">
<title>artifact</title>
<polygon fill="#f2f2f2" stroke="#000000" points="453.6381,-309 453.6381,-345 511.6423,-345 511.6423,-309 453.6381,-309"/>
<text text-anchor="middle" x="482.6402" y="-322.9" font-family="Helvetica,Arial,sans-serif" font-size="14.00" fill="#000000">artifact</text>
</g>
<!-- client_entry&#45;&gt;artifact -->
<g id="edge3" class="edge">
<title>client_entry&#45;&gt;artifact</title>
<path fill="none" stroke="#000000" stroke-dasharray="5,2" d="M294.8068,-205.56C320.6449,-217.7132 352.4086,-236.0532 374.1402,-260.2 387.1272,-274.6303 377.5192,-287.228 392.1402,-300 407.9827,-313.839 430.676,-320.5882 449.3745,-323.8781"/>
<polygon fill="#000000" stroke="#000000" points="449.369,-325.2961 453.5437,-324.5668 449.8254,-322.5335 449.369,-325.2961"/>
<text text-anchor="middle" x="344.9628" y="-264.2" font-family="Helvetica,Arial,sans-serif" font-size="14.00" fill="#000000">build</text>
</g>
<!-- image -->
<g id="node9" class="node">
<title>image</title>
<polygon fill="#f2f2f2" stroke="#000000" points="455.5827,-254 455.5827,-290 509.6977,-290 509.6977,-254 455.5827,-254"/>
<text text-anchor="middle" x="482.6402" y="-267.9" font-family="Helvetica,Arial,sans-serif" font-size="14.00" fill="#000000">image</text>
</g>
<!-- client_entry&#45;&gt;image -->
<g id="edge6" class="edge">
<title>client_entry&#45;&gt;image</title>
<path fill="none" stroke="#000000" stroke-dasharray="5,2" d="M294.9649,-177.098C320.2291,-173.448 351.3462,-173.6311 374.1402,-189.2 391.8595,-201.3028 377.085,-218.7097 392.1402,-234 408.035,-250.1429 431.8279,-259.7675 451.029,-265.2903"/>
<polygon fill="#000000" stroke="#000000" points="451.0727,-266.7551 455.3014,-266.474 451.8204,-264.0567 451.0727,-266.7551"/>
<text text-anchor="middle" x="344.9628" y="-193.2" font-family="Helvetica,Arial,sans-serif" font-size="14.00" fill="#000000">build</text>
</g>
<!-- server_entry&#45;&gt;dev_environment -->
<g id="edge15" class="edge">
<title>server_entry&#45;&gt;dev_environment</title>
<path fill="none" stroke="#000000" stroke-dasharray="5,2" d="M298.0632,-278.8056C321.6817,-270.7658 350.2552,-259.5894 374.1402,-246 384.2759,-240.2333 394.4668,-233.5636 404.3278,-226.5402"/>
<polygon fill="#000000" stroke="#000000" points="405.2281,-227.6173 407.6588,-224.1456 403.5937,-225.3438 405.2281,-227.6173"/>
</g>
<!-- server_entry&#45;&gt;artifact -->
<g id="edge4" class="edge">
<title>server_entry&#45;&gt;artifact</title>
<path fill="none" stroke="#000000" stroke-dasharray="5,2" d="M297.9328,-303.6873C303.9253,-304.8899 309.9882,-306.0294 315.7854,-307 361.962,-314.7313 415.8124,-320.6288 449.5705,-323.9535"/>
<polygon fill="#000000" stroke="#000000" points="449.4686,-325.3501 453.5859,-324.3462 449.7411,-322.5634 449.4686,-325.3501"/>
<text text-anchor="middle" x="344.9628" y="-319.2" font-family="Helvetica,Arial,sans-serif" font-size="14.00" fill="#000000">bundle</text>
</g>
<!-- server_entry&#45;&gt;image -->
<g id="edge7" class="edge">
<title>server_entry&#45;&gt;image</title>
<path fill="none" stroke="#000000" stroke-dasharray="5,2" d="M297.7903,-288.7503C343.4749,-284.6106 411.6501,-278.4328 451.1773,-274.851"/>
<polygon fill="#000000" stroke="#000000" points="451.5242,-276.2254 455.3815,-274.4701 451.2714,-273.4369 451.5242,-276.2254"/>
<text text-anchor="middle" x="344.9628" y="-290.2" font-family="Helvetica,Arial,sans-serif" font-size="14.00" fill="#000000">bootstrap</text>
</g>
<!-- artifact&#45;&gt;hosting -->
<g id="edge5" class="edge">
<title>artifact&#45;&gt;hosting</title>
<path fill="none" stroke="#000000" stroke-dasharray="5,2" d="M511.6807,-323.8425C545.6497,-320.1491 603.477,-313.8616 652.454,-308.5364"/>
<polygon fill="#000000" stroke="#000000" points="652.7377,-309.9139 656.5629,-308.0897 652.435,-307.1303 652.7377,-309.9139"/>
<text text-anchor="middle" x="612.15" y="-318.2" font-family="Helvetica,Arial,sans-serif" font-size="14.00" fill="#000000">upload</text>
</g>
<!-- image&#45;&gt;hosting -->
<g id="edge8" class="edge">
<title>image&#45;&gt;hosting</title>
<path fill="none" stroke="#000000" stroke-dasharray="5,2" d="M513.875,-274.0143C544.3517,-276.1017 592.006,-279.6898 633.1598,-284.2 642.0148,-285.1705 651.2676,-286.2903 660.4658,-287.4707"/>
<polygon fill="none" stroke="#000000" points="513.9618,-272.6171 509.8759,-273.7423 513.7717,-275.4106 513.9618,-272.6171"/>
<text text-anchor="middle" x="612.15" y="-288.2" font-family="Helvetica,Arial,sans-serif" font-size="14.00" fill="#000000">pull</text>
</g>
</g>
</svg>
